<?xml version="1.0" standalone="no"?>
<!DOCTYPE svg PUBLIC "-//W3C//DTD SVG 20010904//EN"
 "http://www.w3.org/TR/2001/REC-SVG-20010904/DTD/svg10.dtd">
<svg version="1.0" xmlns="http://www.w3.org/2000/svg"
 width="799.000000pt" height="879.000000pt" viewBox="0 0 799.000000 879.000000"
 preserveAspectRatio="xMidYMid meet">

<g transform="translate(0.000000,879.000000) scale(0.100000,-0.100000)"
fill="#544495" stroke="none">
<path d="M3211 8769 c-379 -40 -712 -190 -956 -433 -211 -210 -331 -437 -379
-721 l-12 -70 -674 -6 c-755 -6 -718 -2 -877 -80 -101 -50 -195 -144 -241
-241 -67 -139 -62 111 -62 -3388 0 -3498 -5 -3249 61 -3388 37 -76 127 -175
203 -221 31 -18 95 -47 143 -65 l88 -31 1798 -3 1799 -2 -780 775 c-449 446
-796 799 -817 831 -57 86 -78 154 -79 264 -1 112 23 203 84 317 67 126 115
181 429 493 328 328 346 342 481 376 40 10 110 17 180 18 95 1 128 -3 190 -22
148 -47 335 -155 447 -259 28 -26 204 -214 389 -418 186 -203 341 -371 345
-373 4 -2 420 441 923 983 l916 987 0 1471 c0 1621 3 1532 -63 1665 -63 127
-188 225 -362 283 l-70 24 -677 3 -677 3 -7 37 c-31 182 -60 274 -129 412
-127 253 -358 477 -630 613 -282 141 -642 201 -984 166z m428 -670 c402 -103
661 -501 707 -1086 l6 -82 677 -3 c606 -3 682 -6 736 -21 172 -50 284 -143
359 -299 43 -89 76 -210 76 -278 l0 -30 -2787 2 -2788 3 3 50 c4 70 36 183 74
263 41 85 159 206 238 244 133 63 110 62 856 65 l680 4 13 117 c31 298 116
556 245 735 56 79 176 192 249 236 76 44 208 89 299 100 100 13 265 3 357 -20z
m-2001 -2423 c153 -41 225 -135 226 -296 0 -104 -25 -170 -88 -228 -74 -68
-135 -85 -333 -90 -261 -7 -357 18 -440 112 -49 56 -68 117 -67 216 2 149 79
247 223 286 67 18 411 18 479 0z m4047 -7 c53 -16 78 -31 120 -72 67 -66 90
-132 83 -247 -8 -129 -67 -212 -187 -262 l-56 -23 -1415 -3 c-992 -2 -1434 0
-1479 8 -116 20 -204 81 -245 170 -31 66 -30 206 2 275 27 58 53 88 103 121
87 55 14 53 1570 53 1426 1 1437 1 1504 -20z m-4038 -1233 c95 -25 156 -76
195 -161 32 -71 32 -199 -1 -272 -27 -61 -83 -116 -150 -147 -42 -19 -66 -21
-276 -24 -217 -3 -234 -2 -290 19 -43 15 -75 37 -111 73 -60 62 -79 117 -78
226 2 147 79 250 214 286 66 18 430 18 497 0z m4073 -17 c111 -52 170 -148
170 -277 0 -132 -45 -214 -150 -271 l-65 -36 -1472 -3 -1472 -2 -58 21 c-84
31 -155 105 -178 184 -20 68 -16 178 8 236 31 76 111 142 197 165 35 10 374
12 1505 11 l1460 -2 55 -26z"/>
<path d="M3342 7529 c-48 -14 -119 -90 -152 -162 -37 -83 -71 -232 -77 -344
l-6 -93 307 0 c285 0 306 1 306 18 0 52 -23 208 -41 282 -59 239 -178 344
-337 299z"/>
<path d="M7317 3798 c-21 -4 -47 -13 -57 -18 -11 -6 -113 -113 -227 -238 -115
-125 -442 -484 -728 -797 -286 -313 -616 -675 -734 -805 -519 -569 -508 -557
-562 -575 -53 -18 -101 -15 -149 10 -14 7 -152 143 -305 302 -772 795 -891
915 -915 928 -44 23 -98 28 -148 14 -41 -11 -70 -35 -220 -183 -96 -94 -183
-189 -195 -211 -26 -49 -28 -145 -5 -190 9 -17 103 -127 210 -246 106 -118
351 -390 543 -605 193 -214 500 -557 684 -761 225 -251 346 -378 370 -389 43
-21 107 -22 150 -4 20 8 521 536 1419 1497 763 816 1415 1517 1449 1558 122
146 112 207 -63 388 -81 83 -325 282 -380 310 -40 20 -92 26 -137 15z"/>
</g>
</svg>
