<?xml version="1.0" standalone="no"?>
<!DOCTYPE svg PUBLIC "-//W3C//DTD SVG 20010904//EN"
 "http://www.w3.org/TR/2001/REC-SVG-20010904/DTD/svg10.dtd">
<svg version="1.0" xmlns="http://www.w3.org/2000/svg"
 width="424.000000pt" height="458.000000pt" viewBox="0 0 424.000000 458.000000"
 preserveAspectRatio="xMidYMid meet">

<g transform="translate(0.000000,458.000000) scale(0.100000,-0.100000)"
fill="#544495" stroke="none">
<path d="M2010 4565 c-207 -59 -425 -176 -1010 -545 -631 -398 -775 -478 -894
-495 -95 -15 -117 -91 -73 -261 76 -293 262 -740 533 -1284 298 -596 570
-1049 855 -1426 124 -163 346 -394 441 -458 235 -158 399 -115 694 179 337
336 750 961 1150 1740 292 569 503 1104 521 1325 10 119 -24 172 -119 185
-157 22 -354 129 -958 520 -731 474 -949 573 -1140 520z m355 -1069 c166 -53
289 -170 339 -319 65 -193 32 -388 -96 -582 -26 -38 -86 -119 -134 -180 -48
-60 -103 -143 -122 -182 -32 -68 -34 -80 -38 -193 -3 -125 -8 -142 -44 -175
-20 -18 -36 -20 -180 -20 l-159 0 -29 28 c-17 16 -33 44 -36 63 -13 66 -8 239
8 309 26 112 103 255 211 390 124 156 160 227 160 317 0 60 -3 70 -29 97 -63
66 -212 63 -344 -5 -69 -36 -105 -41 -147 -22 -31 14 -44 37 -91 159 -53 139
-44 181 48 236 64 39 145 68 258 94 125 28 315 21 425 -15z m-148 -1932 c93
-44 144 -127 151 -244 10 -181 -108 -310 -283 -310 -90 0 -155 29 -213 95
-146 165 -59 442 151 485 60 12 134 2 194 -26z"/>
</g>
</svg>
