<?xml version="1.0" standalone="no"?>
<!DOCTYPE svg PUBLIC "-//W3C//DTD SVG 20010904//EN"
 "http://www.w3.org/TR/2001/REC-SVG-20010904/DTD/svg10.dtd">
<svg version="1.0" xmlns="http://www.w3.org/2000/svg"
 width="620.000000pt" height="620.000000pt" viewBox="0 0 620.000000 620.000000"
 preserveAspectRatio="xMidYMid meet">
<metadata>
Created by potrace 1.16, written by Peter Selinger 2001-2019
</metadata>
<g transform="translate(0.000000,620.000000) scale(0.100000,-0.100000)"
fill="#fff" stroke="none">
<path d="M2147 6184 c-329 -43 -653 -156 -937 -323 -639 -379 -1069 -1015
-1187 -1756 -23 -138 -25 -583 -5 -715 167 -1085 968 -1907 2037 -2090 524
-90 1112 3 1560 245 l100 54 750 -748 c720 -718 753 -750 825 -785 103 -50
169 -66 280 -66 116 0 198 19 288 64 161 83 282 232 326 403 18 70 21 218 5
295 -6 29 -29 91 -51 138 l-40 85 -748 750 -748 750 54 100 c314 587 365 1348
133 1989 -305 840 -1020 1438 -1910 1596 -162 29 -564 37 -732 14z m558 -539
c573 -71 1070 -385 1388 -875 141 -219 242 -491 282 -761 19 -136 19 -410 0
-548 -64 -447 -288 -867 -620 -1163 -295 -263 -664 -430 -1058 -478 -129 -16
-463 -8 -572 14 -430 87 -761 266 -1050 568 -179 187 -301 375 -395 609 -204
513 -185 1072 55 1565 191 392 490 693 880 884 205 101 404 160 630 189 113
14 331 12 460 -4z"/>
<path d="M2467 5284 c-4 -4 -7 -81 -7 -171 0 -148 2 -163 18 -163 65 -1 222
-24 302 -46 498 -132 860 -571 897 -1086 l6 -88 170 0 170 0 -6 103 c-40 709
-589 1317 -1292 1431 -119 19 -248 30 -258 20z"/>
</g>
</svg>
